<svg width="1913" height="122" viewBox="0 0 1913 122" fill="none" xmlns="http://www.w3.org/2000/svg">
<rect width="1913" height="121.42" fill="#F0F0F0"/>
<g clip-path="url(#clip0_1_34)">
<path d="M340 58.85C340 56.1167 339.333 53.6 338 51.3C336.667 49 334.85 47.1667 332.55 45.8C330.25 44.4333 327.733 43.75 325 43.75C322.267 43.75 319.75 44.4333 317.45 45.8C315.15 47.1667 313.333 49 312 51.3C310.667 53.6 310 56.1167 310 58.85C310 61.3167 310.55 63.6167 311.65 65.75C312.75 67.8833 314.267 69.65 316.2 71.05C318.133 72.45 320.3 73.35 322.7 73.75V63.25H318.8V58.85H322.7V55.55C322.7 53.6833 323.2 52.2333 324.2 51.2C325.2 50.1667 326.567 49.65 328.3 49.65C328.967 49.65 329.733 49.6833 330.6 49.75L331.7 49.95V53.65H329.8C328.933 53.65 328.3 53.8667 327.9 54.3C327.5 54.7333 327.3 55.3167 327.3 56.05V58.85H331.5L330.8 63.25H327.3V73.75C329.7 73.35 331.867 72.45 333.8 71.05C335.733 69.65 337.25 67.8833 338.35 65.75C339.45 63.6167 340 61.3167 340 58.85Z" fill="#3D3935"/>
</g>
<g clip-path="url(#clip1_1_34)">
<path d="M385 43.75C382.2 43.75 380.117 43.7833 378.75 43.85C377.383 43.9167 376.2 44.15 375.2 44.55C374.2 44.95 373.317 45.5333 372.55 46.3C371.783 47.0667 371.2 47.95 370.8 48.95C370.4 49.95 370.167 51.1333 370.1 52.5C370.033 53.8667 370 55.95 370 58.75C370 61.55 370.033 63.6333 370.1 65C370.167 66.3667 370.4 67.55 370.8 68.55C371.2 69.55 371.783 70.4333 372.55 71.2C373.317 71.9667 374.2 72.55 375.2 72.95C376.2 73.35 377.383 73.5833 378.75 73.65C380.117 73.7167 382.2 73.75 385 73.75C387.8 73.75 389.883 73.7167 391.25 73.65C392.617 73.5833 393.8 73.35 394.8 72.95C395.8 72.55 396.683 71.9667 397.45 71.2C398.217 70.4333 398.8 69.55 399.2 68.55C399.6 67.55 399.833 66.3667 399.9 65C399.967 63.6333 400 61.55 400 58.75C400 55.95 399.967 53.8667 399.9 52.5C399.833 51.1333 399.6 49.95 399.2 48.95C398.8 47.95 398.217 47.0667 397.45 46.3C396.683 45.5333 395.8 44.95 394.8 44.55C393.8 44.15 392.617 43.9167 391.25 43.85C389.883 43.7833 387.8 43.75 385 43.75ZM383.7 46.45H385C387.8 46.45 389.833 46.4833 391.1 46.55C392.167 46.6167 393.05 46.7833 393.75 47.05C394.45 47.3167 395.05 47.7 395.55 48.2C396.05 48.7 396.433 49.3 396.7 50C396.967 50.7 397.133 51.5833 397.2 52.65C397.267 53.9167 397.3 55.95 397.3 58.75C397.3 61.55 397.267 63.5833 397.2 64.85C397.133 65.9167 396.967 66.8 396.7 67.5C396.433 68.2 396.05 68.8 395.55 69.3C395.05 69.8 394.45 70.1833 393.75 70.45C393.05 70.7167 392.167 70.8833 391.1 70.95C389.767 71.0167 387.733 71.05 385 71.05C382.267 71.05 380.233 71.0167 378.9 70.95C377.833 70.8833 376.95 70.7167 376.25 70.45C375.55 70.1833 374.95 69.8 374.45 69.3C373.95 68.8 373.567 68.2 373.3 67.5C373.033 66.8 372.867 65.9167 372.8 64.85C372.733 63.5167 372.7 61.4667 372.7 58.7C372.7 55.9333 372.733 53.9167 372.8 52.65C372.867 51.5833 373.033 50.7 373.3 50C373.567 49.3 373.95 48.7 374.45 48.2C374.95 47.7 375.55 47.3167 376.25 47.05C376.95 46.7833 377.867 46.6167 379 46.55C380.133 46.4833 381.7 46.45 383.7 46.45ZM393 48.95C392.533 48.95 392.117 49.1167 391.75 49.45C391.383 49.7833 391.2 50.2 391.2 50.7C391.2 51.2 391.383 51.6333 391.75 52C392.117 52.3667 392.55 52.55 393.05 52.55C393.55 52.55 393.967 52.3667 394.3 52C394.633 51.6333 394.8 51.2 394.8 50.7C394.8 50.2 394.633 49.7833 394.3 49.45C393.967 49.1167 393.533 48.95 393 48.95ZM385 51.05C383.6 51.05 382.3 51.3833 381.1 52.05C379.9 52.7167 378.95 53.65 378.25 54.85C377.55 56.05 377.2 57.35 377.2 58.75C377.2 60.15 377.55 61.45 378.25 62.65C378.95 63.85 379.9 64.7833 381.1 65.45C382.3 66.1167 383.6 66.45 385 66.45C386.4 66.45 387.683 66.1 388.85 65.4C390.017 64.7 390.933 63.7667 391.6 62.6C392.267 61.4333 392.6 60.15 392.6 58.75C392.6 57.35 392.267 56.0667 391.6 54.9C390.933 53.7333 390.017 52.8 388.85 52.1C387.683 51.4 386.4 51.05 385 51.05ZM385 53.75C385.867 53.75 386.7 53.9667 387.5 54.4C388.3 54.8333 388.917 55.45 389.35 56.25C389.783 57.05 390 57.8833 390 58.75C390 59.6167 389.783 60.45 389.35 61.25C388.917 62.05 388.3 62.6667 387.5 63.1C386.7 63.5333 385.867 63.75 385 63.75C383.6 63.75 382.417 63.2667 381.45 62.3C380.483 61.3333 380 60.15 380 58.75C380 57.35 380.483 56.1667 381.45 55.2C382.417 54.2333 383.6 53.75 385 53.75Z" fill="#3D3935"/>
</g>
<g clip-path="url(#clip2_1_34)">
<path d="M439.4 71.8496C443 71.8496 446.2 70.9496 449 69.1496C451.533 67.4829 453.5 65.2829 454.9 62.5496C456.233 59.8829 456.9 57.1496 456.9 54.3496V53.5496C458.1 52.6829 459.133 51.6163 460 50.3496C458.867 50.8829 457.7 51.2163 456.5 51.3496C457.833 50.5496 458.733 49.4163 459.2 47.9496C457.933 48.6829 456.633 49.1829 455.3 49.4496C454.3 48.4496 453.117 47.8329 451.75 47.5996C450.383 47.3663 449.083 47.5829 447.85 48.2496C446.617 48.9163 445.717 49.8829 445.15 51.1496C444.583 52.4163 444.467 53.7163 444.8 55.0496C442.333 54.9163 439.983 54.2996 437.75 53.1996C435.517 52.0996 433.633 50.5829 432.1 48.6496C431.3 50.0496 431.083 51.5329 431.45 53.0996C431.817 54.6663 432.667 55.9163 434 56.8496C433 56.7829 432.067 56.5163 431.2 56.0496V56.1496C431.2 57.6163 431.667 58.9163 432.6 60.0496C433.533 61.1829 434.7 61.8829 436.1 62.1496C435.567 62.3496 435.033 62.4496 434.5 62.4496C434.1 62.4496 433.733 62.4163 433.4 62.3496C433.8 63.5496 434.517 64.5496 435.55 65.3496C436.583 66.1496 437.767 66.5496 439.1 66.5496C438.033 67.4163 436.833 68.0829 435.5 68.5496C434.167 69.0163 432.833 69.2496 431.5 69.2496C430.967 69.2496 430.467 69.2163 430 69.1496C432.867 70.9496 436 71.8496 439.4 71.8496Z" fill="#3D3935"/>
</g>
<defs>
<clipPath id="clip0_1_34">
<rect width="30" height="30" fill="white" transform="matrix(1 0 0 -1 310 73.75)"/>
</clipPath>
<clipPath id="clip1_1_34">
<rect width="30" height="30" fill="white" transform="matrix(1 0 0 -1 370 73.75)"/>
</clipPath>
<clipPath id="clip2_1_34">
<rect width="30" height="30" fill="white" transform="matrix(1 0 0 -1 430 73.75)"/>
</clipPath>
</defs>
</svg>
