<svg width="19" height="16" viewBox="0 0 19 16" fill="none" xmlns="http://www.w3.org/2000/svg">
<g clip-path="url(#clip0_1_25)">
<path d="M9.17001 16C9.49001 15.68 9.81001 15.36 10.13 15.04C10.8767 14.2578 11.5522 13.4578 12.1567 12.64C13.0456 11.4667 13.7389 10.3822 14.2367 9.38667C14.8767 8.10667 15.1967 6.96889 15.1967 5.97333C15.1967 4.90667 14.9211 3.91111 14.37 2.98667C13.8189 2.06222 13.09 1.33333 12.1833 0.799999C11.2767 0.266666 10.2722 0 9.17001 0C8.06779 0 7.06334 0.266666 6.15667 0.799999C5.25001 1.33333 4.52112 2.06222 3.97001 2.98667C3.4189 3.91111 3.14334 4.90667 3.14334 5.97333C3.14334 6.96889 3.46334 8.10667 4.10334 9.38667C4.60112 10.3822 5.29445 11.4667 6.18334 12.64C6.78779 13.4578 7.46334 14.2578 8.21001 15.04L9.17001 16ZM9.17001 9.01333C8.35223 9.01333 7.65001 8.72 7.06334 8.13333C6.47667 7.54667 6.18334 6.83556 6.18334 6C6.18334 5.16444 6.47667 4.45333 7.06334 3.86667C7.65001 3.28 8.35223 2.98667 9.17001 2.98667C9.98779 2.98667 10.69 3.28 11.2767 3.86667C11.8633 4.45333 12.1567 5.16444 12.1567 6C12.1567 6.83556 11.8633 7.54667 11.2767 8.13333C10.69 8.72 9.98779 9.01333 9.17001 9.01333Z" fill="#007042"/>
</g>
<defs>
<clipPath id="clip0_1_25">
<rect width="18.34" height="16" fill="white" transform="matrix(1 0 0 -1 0 16)"/>
</clipPath>
</defs>
</svg>
